<?xml version="1.0" standalone="no"?>
<!DOCTYPE svg PUBLIC "-//W3C//DTD SVG 20010904//EN"
 "http://www.w3.org/TR/2001/REC-SVG-20010904/DTD/svg10.dtd">
<svg version="1.0" xmlns="http://www.w3.org/2000/svg"
 width="400.000000pt" height="400.000000pt" viewBox="0 0 400.000000 400.000000"
 preserveAspectRatio="xMidYMid meet">
<metadata>
Created by potrace 1.11, written by Peter Selinger 2001-2013
</metadata>
<g transform="translate(0.000000,400.000000) scale(0.100000,-0.100000)"
fill="#000000" stroke="none">
<path d="M1248 3225 c-2 -2 -41 -5 -88 -8 -468 -29 -896 -355 -1057 -807 -109
-303 -90 -661 50 -945 42 -85 108 -190 159 -251 97 -117 261 -247 403 -318 64
-31 196 -80 250 -93 178 -40 356 -43 540 -8 144 26 326 105 463 201 89 62 243
221 304 314 31 47 100 163 153 258 54 95 100 174 104 176 6 4 553 -936 559
-961 3 -10 91 -13 434 -13 l430 0 -20 33 c-18 28 -1126 1947 -1194 2067 -14
25 -57 99 -96 165 -38 66 -78 135 -88 152 -11 18 -22 33 -25 33 -3 0 -13 -15
-22 -32 -20 -40 -63 -116 -155 -273 l-70 -120 25 -40 c85 -139 149 -326 168
-495 11 -96 13 -130 5 -135 -5 -3 -7 2 -6 12 2 13 -18 123 -39 206 -24 99
-135 317 -200 394 -156 185 -261 271 -432 357 -75 38 -232 93 -293 102 -19 3
-37 7 -40 9 -3 2 -41 6 -85 10 -44 4 -92 8 -107 10 -15 1 -29 1 -30 0z m864
-677 c-16 -29 -78 -143 -137 -253 -60 -110 -145 -267 -189 -350 -45 -82 -90
-167 -101 -189 -48 -93 -177 -197 -289 -230 -60 -18 -212 -18 -271 0 -165 49
-298 185 -341 349 -17 60 -18 185 -3 240 36 136 136 258 260 319 83 40 125 50
219 50 92 0 133 -9 215 -49 134 -65 227 -186 263 -340 11 -45 21 -72 25 -62 3
8 85 136 182 283 98 147 179 274 182 281 3 8 8 12 10 9 3 -2 -9 -28 -25 -58z"/>
</g>
</svg>
